<?xml version="1.0" encoding="UTF-8"?>
<svg id="Layer_1" xmlns="http://www.w3.org/2000/svg" version="1.1" viewBox="0 0 289.8 290.7">
  <!-- Generator: Adobe Illustrator 29.4.0, SVG Export Plug-In . SVG Version: 2.1.0 Build 152)  -->
  <defs>
    <style>
      .st0 {
        fill: #ceedbc;
      }

      .st1 {
        fill: #4e4e6d;
      }
    </style>
  </defs>
  <g id="Layer_2">
    <g>
      <path class="st0" d="M278.3,38l-6.4-2.5c.3,2.8.5,5.7.4,8.6l-16.5,16.7-29.9-9.5-5.8-33.7,13.2-13.3c7.4-1.6,14.8-2.4,22.2-4.2h1.1l-8.2,7.4c8.8,1.4,17.9,5.3,23.3,12.7,4.2,5.8,5.7,10.4,7.7,15,.6,1.3,1.2,2.6,1.9,3.9l-3-1.2h0Z"/>
      <path class="st0" d="M220.1,50.6l-23.9,24.2-29.9-9.5-5.8-33.7,17.7-17.8c1.5.6,3,1.3,4.9,1.9,4.6,1.5,7.9,1.5,11.6,3,2.5-2.1,5.4-3.8,8.3-5.3,2.1-1.1,4.3-2.2,6.4-3.3.1.5.1,1.2,0,1.7,0,1-.3,2.4-.4,3.6,0,.4,0,.9,0,1.2,0,1.3,0,.4.4.4.5-.1,1.3-.4,2.1-.8l2.9.9,5.8,33.6h0Z"/>
      <path class="st0" d="M59.6,202.1l-23.9,24.1-4.7-1.5c-3-4.5-5.3-9.5-6.7-14.7-8.3,0-7.2-10.1-8.7-15.8-1.5-5.6-2.9-6.9-4-10.4-1-3.2-1.6-6.9-1.9-10.6l14.3-14.4,29.8,9.5,5.8,33.7h0Z"/>
      <polygon class="st0" points="80 140.5 56.1 164.6 26.2 155.1 20.4 121.5 44.5 97.3 74.3 106.8 80 140.5"/>
      <polygon class="st0" points="119.2 188.2 95.3 212.3 65.3 202.8 59.6 169.1 83.6 145 113.4 154.5 119.2 188.2"/>
      <polygon class="st0" points="139.6 126.5 115.7 150.6 85.8 141.1 80 107.5 104.1 83.3 133.9 92.8 139.6 126.5"/>
      <polygon class="st0" points="158.4 235.8 134.5 260 104.6 250.4 98.8 216.8 122.8 192.6 152.6 202.1 158.4 235.8"/>
      <polygon class="st0" points="178.8 174.1 154.9 198.3 125 188.8 119.2 155.1 143.3 131 173.1 140.5 178.8 174.1"/>
      <polygon class="st0" points="218 221.8 194.1 246 164.1 236.5 158.4 202.8 182.4 178.7 212.2 188.2 218 221.8"/>
      <polygon class="st0" points="238.4 160.1 214.5 184.3 184.6 174.8 178.8 141.1 202.9 117 232.6 126.5 238.4 160.1"/>
      <polygon class="st0" points="199.7 112.3 175.8 136.4 145.8 126.9 140.1 93.2 164.1 69.1 193.9 78.6 199.7 112.3"/>
      <polygon class="st0" points="259.3 98.3 235.4 122.4 205.4 112.9 199.7 79.3 223.7 55.1 253.5 64.6 259.3 98.3"/>
      <polygon class="st0" points="99.6 78.6 75.7 102.7 45.8 93.2 40 59.6 64.1 35.4 93.8 44.9 99.6 78.6"/>
      <path class="st0" d="M120,16.9l-23.9,24.2-29.9-9.5-4.5-26.2c3.2.8,3.4,1.2,5.7,2.5,4.9,2.7,7.2,7.7,13,9,1.9.4,2.6.5,2.7.5-.1,0-2.4-.7-2.3-.9,0-1.2-.4-3.2-.5-4.5-.1-1.3,0-1.4,0-1.9,3.3,1.9,6.9,3.3,10.1,5.3s3.1,2.3,4.7,3.3c3.7-1.5,7.8-1.7,11.5-2.9s7-3.5,12.4-4.4l1,5.6h0Z"/>
      <polygon class="st0" points="159.2 64.6 135.3 88.8 105.3 79.3 99.6 45.6 123.6 21.5 153.4 31 159.2 64.6"/>
      <path class="st0" d="M171.2,11.4l-15.5,15.7-29.9-9.5-1.2-7.1c.4,0,.6-.1.9-.3.6-.4.5-1.8.8-2.4,2.9-6.4,13.7-4,18.5-1.3,5-2.7,16-5.4,18.8,1.4.4,1.1.7,1.8,1,2.4,0,0-.1,0-.2,0-.3-.2,1.3,3.1.2,0,1.1.4,5,.7,6.2.9.2,0,.3,0,.5.1h0Z"/>
      <path class="st0" d="M164.3,10.3s.1,0,.2,0c1.1,3-.5-.3-.2,0Z"/>
      <path class="st0" d="M274.9,192c-.3.6-.5,1.4-.7,2.2-1.5,5.6-.4,15.8-8.7,15.8-2.2,8.1-6.4,15.6-12.1,21.6l-29.6-9.4-5.8-33.7,24-24.1,29.8,9.5,3.1,18.1h0Z"/>
      <path class="st0" d="M280.7,158.4c0,1.9,0,3.6,0,5.1l-6.5,6.6-29.9-9.5-5.8-33.7,24-24.2,12.5,4c4.3,17,6,34,5.8,51.7h0Z"/>
      <path class="st0" d="M280.4,171.7c-.2,4.6-.6,6-1.7,9.8l-1.2-6.9,2.8-2.9h0Z"/>
      <path class="st0" d="M194.1,272.7c-1.7.9-3.7,1.9-4.6,2.2-1.5.4-.3-.5-1-.5-5.2,5.4-12.4,8.2-18.8,11.8-.3,0-.3,0-.3-.3.1-1,.4-2.1.6-3.1-1.9.6-4.2,1.9-6.3,2.1s-2.2-.5-2.8-.4c-.6.1-3.2,2.3-4.1,2.8-2.1.9-4,.8-5.8,1.4s-2.8,1.7-4.4,1.9h-3.6c-.9-.1-1.7-.6-2.5-1l-4.3-25.2,24-24.1,29.8,9.5,3.9,22.9h0Z"/>
      <path class="st0" d="M249.1,235.6c-1.5,1.3-3.1,2.4-4.8,3.5l-2.7-3.1-6.9,9.2-5.9,2.3c-8.1,9.8-18.7,16.2-28.9,23.3-.5,0,0-.6,0-1s0-.5-.4-.4c0,0-.2.1-.4.2l-3.3-19.1,24-24.1,29.1,9.3h0Z"/>
      <path class="st0" d="M99.6,250l-16.2,16.3c-8.2-5.5-16.1-11.2-22.4-18.9l-5.9-2.3-6.9-9.2-2.7,3.2c-1.7-1-3.2-2.2-4.7-3.4l-.8-4.7,24-24.1,29.8,9.5,5.8,33.6h0Z"/>
      <path class="st0" d="M134.6,287.9c-.5-.1-1.1-.3-1.6-.5-2.1-.9-3.7-2.7-4.1-2.8-.8,0-1.9.4-2.8.4-2.1,0-4.3-1.3-6.3-2.1.3,1,.5,2.1.6,3.1s0,.4-.3.3c-6.4-3.6-13.6-6.4-18.8-11.8-.8,0,.3.9-1,.5-1.3-.4-5.4-2.6-6.9-3.5-1.5-.9-2.6-1.8-3.2-2.1s-.4,0-.4.4.5,1.2,0,1c-1.1-.7-2.1-1.4-3.2-2.2l14-14.1,29.8,9.5,4.1,23.8h0Z"/>
      <path class="st0" d="M60.4,31l-23.9,24.2-18.6-5.9c-.6-4.5-.5-9.1,0-13.5l-9.5,3.7c4.7-9.1,7.3-19.3,16.2-25.3,9-6,10.9-5.3,16.6-6.2L33.1.5h1.4V0c7,1.7,14.2,2.6,21.3,4l4.6,26.9h0Z"/>
      <path class="st0" d="M21.3,155.8l-12,12.1c-.1-3.2-.2-6.4-.3-9.4-.1-12.6.7-25.2,2.8-37.6l3.7,1.2,5.8,33.7h0Z"/>
      <path class="st0" d="M41.8,94.1l-23.9,24.2-5.2-1.7c1.8-9,4.2-17.8,7.6-26.4L0,79.8v-.3l18.5-2.2c2.8-.8,8.2-2.3,7.5-6-.6-3.7-5.6-5-5.9-5.8-.3-.8,1.5-3.3,1.5-4.2s-2.2-4.6-2.4-5.7c0-.2-.1-.4-.2-.6l16.9,5.4,5.8,33.7h0Z"/>
      <path class="st0" d="M289.8,79.9l-20.2,10.2c1.4,3.6,2.6,7.3,3.8,11l-7.6-2.4-5.8-33.7,10.9-10.9c-.1.4-.2.8-.4,1.3-2.2,6.3-2.4,5.3-2.4,5.7,0,.9,1.8,3.5,1.5,4.2-.3.8-2.4,1.8-2.9,2.3-2.6,2.3-4.6,4.2-1.1,7.2,7.3,4,16.2,3.2,24.3,4.6v.5h0Z"/>
    </g>
  </g>
  <g id="Layer_3">
    <g>
      <path class="st1" d="M109.8,78.9c-.1,4.2-.3,7.1-.3,8.7-.3.5-.5,1.2-.5,1.9s0,.4,0,.5c0,0,0,.4.3,1,0,2.4-.3,5.1-.3,8.2-.4.9-.6,2.1-.6,3.3v6.3l.3,3.8h0c0,.1.8,1.3.8,1.5s0,.3-.4.3c0,2.9,0,5.9.3,8.7h-.4v.9c-.3.5-.4.9-.4,1.3l-.4.6.3.5c.1.6.5,1.2,1.2,1.4v1.8c.1,0-8.7,0-8.7,0,0-.6,0-2.8.1-6.3.1-.1.3-.4.4-.5.3-.3.5-.8.5-1.4s-.1-1-.6-1.5h0v-10.7c.1-.4.3-1,.3-1.7s0-.3,0-.5c0,0,0-.4.3-1l-1.4.5c-.5.1-1,.5-1.3,1-.3,0-.4.3-.5.5h-10.9c-.5-.3-1-.4-1.5-.5l-.6-.4-.9.5c-.1,1.7-.3,5.1-.3,10.4s.3,1.4.8,1.9v2.7c-.1.3-.3.6-.4.9-.3.5-.4,1.2-.4,1.8,0,1,.4,2.1,1.2,3.2v1.2h-3.2c-.3-.3-.6-.4-1.2-.4s-.4,0-.5.1c-.3-.4-.6-.5-1.2-.5s-.9.3-1.4.8h-.1c0,.1-1.4.1-1.4.1,0-1.5,0-4.4.1-8.7.3-.5.5-1.2.5-2.1l-.4-1.4c0-3.2.1-6,.1-8.3.4-1,.6-2.2.6-3.6,0-2.7-.1-4.4-.6-5v-1.2c1.2-.6,1.8-1.5,1.8-2.4s-1-2.1-1.8-2.9c0-2.1-.3-5-.5-9.1l.4-.3v-.8c0-.3.3-.8.3-1.3l.4-.6c-.3-.4-.9-1.2-1.5-1.9v-2.6c.9,0,2.4,0,4.3.4,1.8.3,3.2.4,4.3.3v6.4l-.3.4c-.3.4-.5.9-.5,1.5s.1,1,.6,1.4v3.6l-.4.8v2.4h0v4.4c0,.5,0,.8.3.8s.1-.1.5-.6c.1-.3.3-.1.3.4h1.4l1.8-.8h0c.6.5,1.4.9,2.1.9s1.2-.1,1.7-.6c.8,0,1.5.3,2.3.3s.9-.3,2.2-.3c.3.1.4.4.6.4s.4,0,1,.4c.5.3.9.4,1,.3-.6,0-1,0-1,.1,0,.3.5.4,1.5.4s2.4-.4,3.4-1.2l-1.3-1.5c.1-.4.3-.8.3-.9,0-.3-.5-.4-.6-.9,0,.1,0-.5.3-2.2l-.4.5c.1-3.6.3-5.1.3-4.8,0-.6-.3-1.3-.9-1.9v-2.7c.3-.4.4-.8.5-1.2.1-.5.3-1,.3-1.5,0-1-.4-2.1-1.2-3.2v-1.2l3.7-.8c.3.3.3,1.2.6,1.2h.6c0-.1,0,0,0,0h0c.3.4.6.5.9.5.5,0,1-.3,1.5-.9h1.4l.6.5h0Z"/>
      <path class="st1" d="M158.9,108.2c0,0,.1,0,.1-.1,0-.5-1-1.8-1.9-1.8h.3c0,0,.1.1.1.4,0,.8-.5,2.7-1.4,5.7l-6.3,7.6c-3.4,4.1-5.2,6.6-5.2,7.3l-.6.9h-.5c0-.1-1.4,2.7-1.4,2.7l-1.5,2.1h-1.5l-.8-2.2-.9,1.7-1.3-2.1c-.3-.5-.9-1-1.5-1.5l-7.9-12.2c.1.3.5.4,1,.4s.8-.3.8-.6-.1-.8-.5-1.3l-2.8-.5c-.1-.4-.8-1.3-1.5-2.6-.4.1-1.2-.3-2.3-1.4-1.2-.9-1.8-1.7-2.1-2.2v-2.9h-.3c-.3,0-1.3,1.2-1.7.9l-1.2-1.5c.4-.6.8-1.3.9-1.7l5.8-7.2c.9-.3,1.8-.6,2.8-1.3.3-.3-1-1-.8-1.4,4.5-5.8,6.8-9,6.8-9.8l1.4-.3.8-2.1c.5-.4,1.8-1.8,3.8-4.1.5,0,.9.3,1.3,1l.3-1h1.3l2.8,3.5,7,10.4c.6.9,1,1.5,1,1.5h0s-.9-.3-1.1-.3-.5.3-.5.8.1,1,.4,1.8l3.1-.5c.4.3.4,1.9.9,2.4,1.1,0,2.1.8,3.1,2.3-.1.4,0,.8.4.9,0,.6.4,1.2,1,1.4v.9c1.8,1,2.8,1.7,3.3,1.8l-2.3,4.4h-.5c0-.1,0-.2,0-.2ZM151.7,105.4s.1-.1.1-.3c0,0-.1-.1-.3-.1h-1.1s0-.1.1-.3v-1h-.3c-.4-.9-1.4-2.3-3.1-4-1.7-1.8-2.8-3.2-3.2-4.1-.5-1-1-2.1-1.4-3.1-.6-1.3-1.3-2.1-2.1-2.3-.9-1-1.8-2.3-2.6-3.6-.5.6-1.1,1.8-1.9,3.5-.6,1.3-1.4,2.3-2.3,3.1h-1.7l.6,1.2-.3.9h-.8l-1.4-1.2h-.1c-.1,0,0,.4.3,1.2.3.9.4,1.5.4,1.9s0,.3-.1.4c-.1.3-.9.9-2.1,1.7-.8.6-1.3,1.4-1.3,2.4l-2.6,2.2,1.5,1.2c.4.3.9.8,1.4,1.5.5.6.9,1.2.8,1.4.1,2.4,1.3,4,3.1,4.6l2.8,4.2c1.3,1.8,2.2,2.8,2.8,2.9-.1.8,0,1.3.5,1.4.4,0,.8.3,1.1.3l1.8-2.8s.8-.9,2.1-2.2l2.1-3.2,5.5-1.8s-.4-.1-1.1-.5c-.6-.4-1.1-.5-1.4-.5s-.1,0-.1,0c0,0,0-.3.3-.9s.4-1,.5-.9l3.3-3.1h0c0-.1,0-.1,0-.1Z"/>
      <path class="st1" d="M198.8,130.1h-1.9c0-.1-1.3-2.1-1.3-2.1l-4-5.1v-1.5c0-.6-.1-1.2-.4-1.3h-1.5c-.5-.9-1.3-1.9-1.9-3.2s-1.3-2.3-1.8-2.9c-.3-1-.8-2.1-1.7-3.2-.5-.4-1.5-1.7-2.8-3.7-.4-.8-1-1.3-1.9-1.7l-.6-1c.1-.3.3-.8.5-1.5h0c0-.4-1.4-.3-1.5-.5-.4-1-.9-2.1-1.4-3.2l-.3-.3h-.1c.3.6.5,1,.5,1l-.4,1.5-.3,1.4.5.3-.5.8c.5.1.8.6.8,1.5-.8-.1-1.3,0-1.3,0l1.3,2.1c-.1.5-.3,1.5-.3,2.9v1.4s0-.1.1-.1c0,.1,0,.3-.1.1,0,.1-.1.5-.3.9l.4,2.7-1.1-1.2c-.1.8-.3,1.4-.3,1.7s.1.6.6.8.6.3.6.9-.3,1.4-.3,1.8,0,.4.3.5l-.4,2.2c-.1.3-.3,1.5-.3,3.3s.4,2.1,1.3,3.2v1.2h-3.4s-.4-.1-1.1-.4v.4h-1.1c-.1,0-.8-.8-.9-.8-.5,0-1,.3-1.5.9-.6,0-.9-.1-1.3-.1h-.3.3c.8-.5,1.1-1,.8-1.4l-1-1.4c.1-1.3.3-2.2.1-2.8,0-1-.1-2.1-.1-2.9l.8-.9.9-2.4c-.5,0-1,0-1.5-.3-.1-.6-.1-1.5-.1-2.3s.1-2.7.5-4.9c.4-2.2.5-3.8.5-4.8s-.1-1.7-.3-2.9c-.1-1.4-.3-2.3-.3-2.9,1-.4,1.5-1.3,1.5-2.3s-.5-1.4-1.5-2.3l-.4-7.8c0-.1,1.1-.8,1.4-1.5-.3-.4-.5-.9-.8-1.4-.4-.6-.6-1.2-.6-1.5s0-.3.1-.4c-.1-.1-.3-.8-.1-1.8.1-1,.1-1.7,0-1.9l.8-.3.8.3c.3,0,.6-.1,1-.4l2.6,3.5c.3-.3.9.4,1.7,2.1l-.5,1.7,1.5-.3,4.9,6.4c0,0-.1.1-.1.4,0,.4.1.8,0,.8,0,.3-.1.4-.5.4l2.3,1c.4,1.5,3.1,5.3,7.8,11.2l1.1,1.4c0-.8,0-1.9.1-3.5v-1.7c0,.8-.1.8-.3-.3-.1-1-.1-1.8-.1-2.6l.4-2.4c0-.3,0-.8-.1-1.4s-.3-1-.3-1c.3-1.3.4-1.8.4-1.8v-.9h.1s.1-.3.1-.8-.3-1.3-.9-2.1v-2.6c.3-.3.4-.6.4-1,.3-.5.4-1.2.4-1.7,0-1-.4-2.2-1.1-3.2v-1.2h2.4c.3.1.6.5,1.3.9.4.6.9,1.3,1.4,1.8l.3-2.8c.9,0,.6.8.9.9.5,0,1-.3,1.4-.9h1.4c-.3,4.2-.4,7.2-.4,8.7l-.9,2.6.8.9s.1.4.1.9,0,1.7-.3,3.5c-.1,1.8-.1,3.1-.1,3.8-.1.5-.3,1.2-.1,1.9.1,1.4.1,1.9.1,1.9,0,1.8,0,2.7,0,2.4,0,1,.1,1.8.4,2.3v1.2h-.3c-.4.4-.6.6-.6.8s.5,1,.8,1.5c0,.3-1.3,1.3-1.3,1.5.1.5.5.9,1,1l.4.6c0,3.3.1,6.4.3,9.4l-.4.3c.3.6.5,1,.5,1.2,0,0-.5.3-1.4.8.4,1.5,1,2.4,1.7,2.7h0c0-.1.1,0,.1,0h0v1.8h.1l-.8-.3h0Z"/>
      <path class="st1" d="M217.3,129.8h-3.4s-.4-.1-1.1-.4v.4c.1,0-.6,0-.6,0h-.5c-.1,0-.6-.8-.9-.8-.5,0-1,.3-1.5.9-.6,0-.8-.3-1.4-.3.1,0,.4-.3.6-.4.4-.4.5-.8.4-1l-.9-1.4c.1-1.3.3-2.2.1-2.8-.1-1-.1-1.9-.1-2.8l.8-.9.9-2.4c-.5,0-1,0-1.4-.3-.1-.6-.3-1.5-.3-2.3s.1-2.7.5-4.9c.4-2.2.5-3.8.5-4.8s-.1-1.7-.3-2.9c-.1-1.4-.3-2.3-.3-2.9.6-.3,1-1.2,1-2.3s-.4-1.5-1-2.3l-.4-7.8c-.1-.1.6-.8.8-1.5-.6-1.3-.9-2.2-.9-2.8s0-.4.1-.5c-.1-.1-.4-.6-.5-1.5-.1-.9-.3-1.4-.4-1.5l.9-.9h8.7c0,1.4,0,3.5-.1,6.4-.3.4-.5,1-.9,1.8.5,1.2.8,1.7.8,1.7,0-.1-.1.3-.4,1.5v1.4c-.1,0,.3.3.3.3l-.5.8c.5.1.8.6.8,1.5-.8-.1-1.1,0-1.3,0l1.3,2.1c-.1.5-.3,1.5-.3,2.9s0,1.9.1,4.4v4.6c0,1.7-.3,2.9-.4,3.7l.4,2.7-1-1.2c-.3.8-.4,1.4-.4,1.8s.1.6.6.6c.9,0,.6,1.4.8,2.6,0,.8.1,1.4.4,1.5l-.4,2.2c-.1.3-.3,1.4-.3,3.2s.4,2.2,1.3,3.2v1.2h0v.4c-.1,0-.1,0-.1,0Z"/>
      <path class="st1" d="M74.8,204h-1.9c0-.1-1.3-2.1-1.3-2.1l-4-5.1v-1.4c0-.6-.1-1.2-.4-1.3h-1.7c-.5-.9-1.3-1.9-1.9-3.2s-1.3-2.3-1.8-2.9c-.3-1-.8-2.1-1.7-3.2-.5-.4-1.5-1.7-2.8-3.7-.4-.8-1-1.3-1.9-1.7l-.6-1c0-.3.3-.8.5-1.5h0c0-.4-1.4-.3-1.5-.5-.4-1-.9-2.1-1.4-3.2l-.3-.3h-.1c.3.6.5,1,.5,1l-.4,1.5-.3,1.4.5.3-.5.8c.5.1.8.6.8,1.4-.8-.1-1.3-.1-1.3,0l1.3,2.1c-.1.5-.3,1.5-.3,2.9v1.4h0s0,.1,0,0c0,.1-.1.5-.3.9l.4,2.7-1.2-1.2c-.1.8-.3,1.4-.3,1.7s.1.6.6.8c.4,0,.6.3.6.9s-.3,1.4-.3,1.8,0,.4.3.5l-.4,2.2c-.1.3-.3,1.4-.3,3.3s.4,2.1,1.3,3.2v1.2h-3.5s-.4-.1-1.2-.4v.4h-1.2c-.1,0-.8-.8-.9-.8-.5,0-1,.3-1.5.9-.6,0-.9-.1-1.3-.1h-.3.3c.8-.5,1.2-1,.8-1.4l-1-1.4c.1-1.3.3-2.2.1-2.8v-2.9l.8-.9.9-2.4c-.5,0-1-.1-1.5-.3,0-.6-.1-1.4-.1-2.3s.1-2.7.5-4.9.5-3.9.5-4.8,0-1.7-.3-3.1c-.1-1.4-.3-2.3-.3-3.1,1-.4,1.5-1.3,1.5-2.3s-.5-1.4-1.5-2.3l-.4-7.8c0-.1,1.2-.8,1.4-1.5-.3-.4-.5-.9-.8-1.4-.4-.6-.6-1.2-.6-1.4v-.4c-.1-.1-.3-.8,0-1.8.1-1,0-1.7,0-1.9l.8-.3.8.3c.3,0,.6-.1,1-.4l2.6,3.5c.3-.3.9.4,1.7,2.1l-.5,1.7,1.5-.3,4.9,6.4c-.1,0-.1.1,0,.4v.8c0,.3-.1.4-.5.4l2.3,1c.4,1.5,2.9,5.3,7.8,11.2l1.2,1.4v-5.1c0,.8-.1.8-.3-.3,0-1-.1-1.8-.1-2.6l.4-2.4c0-.3,0-.8-.1-1.4s-.3-1-.3-1c.3-1.3.4-1.8.4-1.8v-.9h0c0,.1,0-.3,0-.8s-.3-1.3-.9-2.1v-2.6c.3-.3.4-.6.4-1,.3-.5.4-1.2.4-1.7,0-1-.4-2.2-1.2-3.2v-1.2h2.4c.3.1.6.5,1.3.9.4.6.9,1.3,1.4,1.8l.3-2.8c.9,0,.6.8.9.9.5,0,1-.3,1.5-.9h1.4c-.3,4.2-.4,7.2-.4,8.7l-.9,2.6.8.9v.9c0,.5,0,1.7-.3,3.5,0,1.8-.1,3.1-.1,3.9-.1.5-.3,1.2-.1,1.9,0,1.4.1,1.9.1,1.9,0,1.8,0,2.7,0,2.4,0,1,0,1.8.4,2.3v1.2h-.3c-.4.4-.6.6-.6.8s.5,1,.8,1.4c0,.3-1.3,1.3-1.3,1.4.1.5.5.9,1,1l.4.6c0,3.3,0,6.4.3,9.4l-.4.3c.3.6.5,1,.5,1.2,0,0-.5.3-1.4.8.4,1.5,1,2.4,1.7,2.7h0c0-.1,0,0,0,0h0v1.8h.1-.4c0,.1,0,.1,0,.1Z"/>
      <path class="st1" d="M115.7,203.6l-2.3-.8.4,1.2-5.4,1.4-1.7-5.8v-.3c0-.3-.3-1.3-.3-1.7s0-.8-.3-1c-.5,0-.6-.8-.9-.9-1.2-.3-2.7-.4-4.7-.4s-1.5.1-2.2.5h-3.3c0,.1-.1,0-.4,0h-2.6l-.3,1c-.8.5-1.2,1.7-1.2,3.3s-.9,2.3-.6,2.8l-.8,2.4-1.8-.4c-.1-.3-.8-.5-1.9-.8,0-.1-.1-.3-.3-.3s-.8.3-1,.3c-1.2-.8-1.8-1.2-1.9-1l-1.3-.8,3.8-10.8c.8-.5,1.5-2.3,1.3-3.2l3.1-7.3c.6-.6,1.4-1.9,2.1-3.7.8-1.8,1.2-3.1,1-4.1l.4-1.2c.5,0,.9-.1,1.3-.3l-.5-.8c.1,0,.4-.1.8-.3v-.9c.5-1.2.8-1.8.8-1.7l-.3-1c.9-2.6,1.8-5.4,2.8-8.5h.4v-.8c.4-.1.6-.4,1-.9,0,0,.1-.1.1-.4s-.1-.5-.5-1c0-.3.3-.6.4-1.2v-.4c0-1.2.4-2.1.6-2.9,0,.3.8,0,.8.1,0,.3.1,1.3.3,2.8,0,1.2.4,1.9,1.2,2.6.8,3.3,1.2,5.3,1,5.6l1.2,1c-.3.3-.4.4-.4.5,0,.4.1.6.5.8.3,1.8,1,4.4,2.2,7.6v.3c0,.9.3,2.3.8,4.1.6,1.9,1.3,3.2,1.8,3.7l.4,1.2c0,.3-.4.6-.9,1l1.3.9c.3,1.3.5,1.8.5,1.8,0,.3-.1.5-.3.6h.4c0,.1.6.5.6.5,1.2,3.2,2.3,6,3.3,8.4l-.3.4.4.6c0,.3.6.4.6.9s0,.5-.3,1.4c.3.5.8.8,1.5.8h0c.1.6.8,1.8,1.5,3.6l-2.3.6h0v.4c.1,0,.2,0,.2,0ZM102.7,185.7c-.4-.6-.6-1.3-.6-1.8v-1.8c-1.4-3.6-2.2-6.3-2.8-8.1h-.3c-.4,1.5-1.2,4-2.2,7.3-.1.1-.4.8-.8,1.8-.3,1-.4,1.5-.5,1.8h.1l-2.2,4.1c1-.1,1.9-.1,2.6-.1h4.2c2.9,0,.9,1.5,1.2,1.5l.5-1.5c1.2,0,1,.3,2.3.1l-1.5-3.2h0c0-.1,0-.1,0-.1Z"/>
      <path class="st1" d="M155.4,204h-1.9c0-.1-1.3-2.1-1.3-2.1l-4-5.1v-1.4c0-.6-.1-1.2-.4-1.3h-1.5c-.5-.9-1.3-1.9-1.9-3.2s-1.3-2.3-1.8-2.9c-.3-1-.8-2.1-1.7-3.2-.5-.4-1.5-1.7-2.8-3.7-.4-.8-1-1.3-1.9-1.7l-.6-1c.1-.3.3-.8.5-1.5h0c0-.4-1.4-.3-1.5-.5-.4-1-.9-2.1-1.4-3.2l-.3-.3h-.1c.3.6.5,1,.5,1l-.4,1.5-.3,1.4.5.3-.5.8c.5.1.8.6.8,1.4-.8-.1-1.3-.1-1.3,0l1.3,2.1c-.1.5-.3,1.5-.3,2.9v1.4c0,0,0-.1.1-.1,0,.1,0,.3-.1.1,0,.1-.1.5-.3.9l.4,2.7-1.1-1.2c-.1.8-.3,1.4-.3,1.7s.1.6.6.8.6.3.6.9-.3,1.4-.3,1.8,0,.4.3.5l-.4,2.2c-.1.3-.3,1.4-.3,3.3s.4,2.1,1.3,3.2v1.2h-3.4s-.4-.1-1.1-.4v.4h-1.1c-.1,0-.8-.8-.9-.8-.5,0-1,.3-1.5.9-.6,0-.9-.1-1.3-.1h-.3.3c.8-.5,1.2-1,.8-1.4l-1-1.4c.1-1.3.3-2.2.1-2.8v-2.9l.8-.9.9-2.4c-.5,0-1-.1-1.5-.3,0-.6-.1-1.4-.1-2.3s.1-2.7.5-4.9.5-3.9.5-4.8-.1-1.7-.3-3.1c-.1-1.4-.3-2.3-.3-3.1,1-.4,1.5-1.3,1.5-2.3s-.5-1.4-1.5-2.3l-.4-7.8c0-.1,1.2-.8,1.4-1.5-.3-.4-.5-.9-.8-1.4-.4-.6-.6-1.2-.6-1.4v-.4c-.1-.1-.3-.8,0-1.8.1-1,0-1.7,0-1.9l.8-.3.8.3c.3,0,.6-.1,1-.4l2.6,3.5c.3-.3.9.4,1.7,2.1l-.5,1.7,1.5-.3,4.9,6.4c-.1,0-.1.1-.1.4,0,.4.1.8,0,.8,0,.3-.1.4-.5.4l2.3,1c.4,1.5,3.1,5.3,7.8,11.2l1.1,1.4c0-.8,0-1.9.1-3.5v-1.7c0,.8-.1.8-.3-.3-.1-1-.1-1.8-.1-2.6l.4-2.4c0-.3,0-.8-.1-1.4s-.3-1-.3-1c.3-1.3.4-1.8.4-1.8v-.9h.1c0,.1.1-.3.1-.8s-.3-1.3-.9-2.1v-2.6c.3-.3.4-.6.4-1,.3-.5.4-1.2.4-1.7,0-1-.4-2.2-1.1-3.2v-1.2h2.4c.3.1.6.5,1.3.9.4.6.9,1.3,1.4,1.8l.3-2.8c.9,0,.6.8.9.9.5,0,1-.3,1.4-.9h1.4c-.3,4.2-.4,7.2-.4,8.7l-.9,2.6.8.9c0,.1.1.4.1.9s0,1.7-.3,3.5c-.1,1.8-.1,3.1-.1,3.9-.1.5-.3,1.2-.1,1.9.1,1.4.1,1.9.1,1.9,0,1.8,0,2.7,0,2.4,0,1,.1,1.8.4,2.3v1.2h-.3c-.4.4-.6.6-.6.8s.5,1,.8,1.4c0,.3-1.3,1.3-1.3,1.4.1.5.5.9,1,1l.4.6c0,3.3.1,6.4.3,9.4l-.4.3c.3.6.5,1,.5,1.2,0,0-.5.3-1.4.8.4,1.5,1,2.4,1.7,2.7h0c0-.1.1,0,.1,0h0v1.8h.1-.9c0,.1,0,.1,0,.1Z"/>
      <path class="st1" d="M205.2,182.2c0,0,.1,0,.1-.1,0-.5-1-1.8-1.9-1.8,0,0,.1-.1.3-.1s.1.1.1.4c0,.8-.5,2.7-1.4,5.6l-6.3,7.6c-3.4,4.1-5.2,6.6-5.2,7.3l-.6.9h-.5c0-.1-1.4,2.7-1.4,2.7l-1.5,2.1h-1.5l-.8-2.2-.9,1.7-1.3-2.1c-.3-.5-.9-1-1.5-1.5l-7.9-12.2c.1.3.5.4,1,.4s.8-.3.8-.6-.1-.8-.5-1.3l-2.8-.5c-.1-.4-.8-1.3-1.5-2.6-.4.1-1.1-.3-2.3-1.4-1.1-.9-1.8-1.7-2.1-2.2v-2.9s-.1-.1-.3-.1c-.3,0-1.3,1.2-1.7.9l-1.1-1.4c.4-.6.8-1.3.9-1.7l5.8-7.2c.9-.3,1.8-.6,2.8-1.3.3-.3-1-1-.8-1.4,4.5-5.8,6.8-9,6.8-9.8l1.4-.3.8-2.1c.5-.4,1.8-1.8,3.8-4.1.5,0,.9.3,1.3,1l.3-1h1.3l2.8,3.5,7,10.4c.6.9,1,1.4,1,1.5s0,0,0,0c0,0-.9-.3-1.1-.3s-.5.3-.5.8.1,1,.4,1.8l3.1-.5c.4.3.4,1.9.9,2.4,1.1,0,2.1.8,3.1,2.3-.1.4,0,.8.4.9,0,.6.4,1.2,1,1.4v.9c1.8,1,2.8,1.7,3.3,1.8l-2.3,4.4h-.5ZM198,179.4s.1-.1.1-.3-.1-.1-.3-.1h-.9c-.1,0-.3,0-.3-.1s0-.1.1-.3v-1h-.3c-.4-.9-1.4-2.3-3.1-4-1.7-1.8-2.8-3.2-3.2-4.1-.5-1-1-2.1-1.4-3.1-.6-1.3-1.3-2.1-2.1-2.3-.9-1-1.8-2.3-2.6-3.6-.5.6-1.1,1.8-1.9,3.5-.6,1.3-1.4,2.3-2.3,3.1h-1.7l.6,1.2-.3.9h-.8l-1.4-1.2h-.1c-.1,0,0,.4.3,1.2.3.9.4,1.5.4,1.9s0,.3-.1.4c-.1.3-.9.9-2.1,1.7-.8.6-1.3,1.4-1.3,2.4l-2.6,2.2,1.5,1.2c.4.3.9.8,1.4,1.5.5.6.9,1.2.8,1.4.1,2.4,1.3,4,3.1,4.6l2.8,4.2c1.3,1.8,2.2,2.8,2.8,3.1-.1.8,0,1.3.5,1.4.4.1.8.3,1.1.3l1.8-2.8c0-.1.8-.9,2.1-2.2l2.1-3.2,5.5-1.8s-.4-.1-1.1-.5c-.6-.4-1.1-.5-1.4-.5s-.1,0-.1.1,0-.3.3-.9.4-1,.5-.9l3.3-3.1h0v-.3h0Z"/>
      <path class="st1" d="M254.4,177.7v.4c-1,1.5-2.7,3.7-4.9,6.3h-.3c-.5.5-1.1,1.3-1.8,2.3-.9,1.4-1.4,2.3-1.7,2.6.4.4,1.5,1.3,3.2,2.6,1.4,1.2,2.7,2.3,3.4,3.5l-4.6,5.9c-.8-1.2-1.9-2.3-3.3-3.2s-2.4-1.9-3.2-3.1c-1.1,1.7-2.6,3.6-4.4,6h-.5c0-.1-1.9,1.8-1.9,1.8l1.4.3-2.6,3.3-.6-.4-.3.3c-.8-1-1.8-2.4-3.3-4.4-1.9-2.2-2.9-3.6-2.9-4.4s0-.1,0-.3c-1.4-1.5-2.9-3.1-4.4-4.5-1.8-1.9-3.1-3.6-3.6-5.1l1-2.3c-.5-.3-.8-.5-1-.5,0,0-.8.5-2.1.3l-1.5-1.8c0-.3-.3-.8-.8-1.4-.5-.8-.8-1.4-.6-1.8-1-.4-2.1-.6-2.9-1.5h0v-.3l4.9-6.6c.5-.1,2.4-2.4,5.6-6.8l5.8-8,3.2-1.8-.5-1.5c0-.5.6-1.7,1.9-3.3h1l.5,1h0c.4-.1,2.9,2.9,7.3,8.9,1.1,1.5,1.8,2.7,1.8,3.5v3.6c.1,0,1.9-.6,1.9-.6,1.1.9,2.2,1.9,3.1,3.1.5,0,1.3.6,2.2,1.5.8.8,1.4,1.5,1.8,2.2l-.9-1.3c.4.9.8,2.2,1.3,3.9.1.1.4.1.6.1.3-.1.5-.1.6-.1l1.5,1.7h.4c0,.1,0,.1,0,.1ZM245.4,178c-.4-.9-1.9-2.9-4.5-6.3.9-.4,1.4-.6,1.3-.8,0-.1-.4-.1-1.1-.1s-1,0-1-.1c-1.8-2.3-2.8-3.5-3.1-3.5l-4.6-6.4-9.9,12.8-1.1,1.2v1.8l-1.7,1.2h1.3c.4,0,.8.4,1.1,1.2.4.9.6,1.4.9,1.5l.8,2.6,3.2,4.6c2.2,2.8,3.6,4.4,4.2,4.5l1.4,3.6c.9-1.5,2.2-3.5,3.8-6l-2.8-2.9v-.5c.1,0-.3-.5-.3-.5,0-.6-.1-1-.3-1.3l.4-1.4h-1.8c-.3,0-.5.1-.5.1h-.1l-1-1.3,5.4-5.5,4.4,4.1v.8c0,.4.1.9.5,1.5.5-.3,1-.1,1.4.3,1-1.2,1.4-1.7,1.4-1.7.4-.6.6-1.4.5-2.3l2.1-1.4h0l-.3.4h0Z"/>
    </g>
  </g>
</svg>